<svg width="30" height="30" viewBox="0 0 30 30" fill="none" xmlns="http://www.w3.org/2000/svg">
<path d="M4.84128 29.3397C4.30261 28.9167 4 28.3431 4 27.7451C4 27.147 4.30261 26.5735 4.84128 26.1505L19.0644 14.9864L4.84128 3.82223C4.31787 3.39686 4.02826 2.82714 4.0348 2.23579C4.04135 1.64443 4.34354 1.07875 4.87628 0.660585C5.40902 0.24242 6.12969 0.00522614 6.88307 8.7738e-05C7.63646 -0.00505257 8.36227 0.222279 8.90419 0.633116L25.1587 13.3918C25.6974 13.8148 26 14.3883 26 14.9864C26 15.5844 25.6974 16.158 25.1587 16.5809L8.90419 29.3397C8.36536 29.7625 7.63464 30 6.87273 30C6.11083 30 5.38011 29.7625 4.84128 29.3397Z" fill="#BCBCBC"/>
</svg>
