<svg width="30" height="30" viewBox="0 0 30 30" fill="none" xmlns="http://www.w3.org/2000/svg">
<path d="M25.1587 0.660346C25.6974 1.08329 26 1.65686 26 2.2549C26 2.85295 25.6974 3.42651 25.1587 3.84946L10.9356 15.0136L25.1587 26.1778C25.6821 26.6031 25.9717 27.1729 25.9652 27.7642C25.9587 28.3556 25.6565 28.9212 25.1237 29.3394C24.591 29.7576 23.8703 29.9948 23.1169 29.9999C22.3635 30.0051 21.6377 29.7777 21.0958 29.3669L4.84128 16.6082C4.30261 16.1852 4 15.6117 4 15.0136C4 14.4156 4.30261 13.842 4.84128 13.4191L21.0958 0.660346C21.6346 0.237527 22.3654 0 23.1273 0C23.8892 0 24.6199 0.237527 25.1587 0.660346Z" fill="#BCBCBC"/>
</svg>
