<svg width="48" height="43" viewBox="0 0 48 43" fill="none" xmlns="http://www.w3.org/2000/svg">
<path d="M28.6 23.8813H37.8M10.2 23.8813H14.8M14.8 23.8813H19.4M14.8 23.8813V18.1859M14.8 23.8813V29.5766M10.2 6.79532H2.38C2.014 6.79532 1.66299 6.97533 1.40419 7.29575C1.14539 7.61618 1 8.05076 1 8.50391L1 39.2586C1 39.7118 1.14539 40.1464 1.40419 40.4668C1.66299 40.7872 2.014 40.9672 2.38 40.9672H45.62C45.986 40.9672 46.337 40.7872 46.5958 40.4668C46.8546 40.1464 47 39.7118 47 39.2586V8.50391C47 8.05076 46.8546 7.61618 46.5958 7.29575C46.337 6.97533 45.986 6.79532 45.62 6.79532H37.8M10.2 6.79532V1.1H14.8V6.79532M10.2 6.79532H14.8M37.8 6.79532V1.1H33.2V6.79532M37.8 6.79532H33.2M14.8 6.79532H33.2" stroke="#00B26B" stroke-width="2.2" stroke-linecap="round" stroke-linejoin="round"/>
</svg>
