<svg width="20" height="21" viewBox="0 0 20 21" fill="none" xmlns="http://www.w3.org/2000/svg">
<path d="M18.75 2.37104L13.7456 2.37106V1.12515C13.7456 0.779753 13.4659 0.5 13.1206 0.5C12.7753 0.5 12.4956 0.779753 12.4956 1.12515V2.37075H7.49563V1.12515C7.49563 0.779753 7.21594 0.5 6.87063 0.5C6.52531 0.5 6.24563 0.779753 6.24563 1.12515V2.37075H1.25C0.559687 2.37075 0 2.93057 0 3.62104V19.2497C0 19.9402 0.559687 20.5 1.25 20.5H18.75C19.4403 20.5 20 19.9402 20 19.2497V3.62104C20 2.93086 19.4403 2.37104 18.75 2.37104ZM18.38 18.8733H1.66667V3.96417H6.24563V4.594C6.24563 4.93938 6.52531 5.21915 6.87063 5.21915C7.21594 5.21915 7.49563 4.93938 7.49563 4.594V3.96448H12.4956V4.59431C12.4956 4.93971 12.7753 5.21946 13.1206 5.21946C13.4659 5.21946 13.7456 4.93971 13.7456 4.59431V3.96448L18.38 3.96667V18.8733ZM14.375 10.4979H15.625C15.97 10.4979 16.25 10.2179 16.25 9.8728V8.62251C16.25 8.27743 15.97 7.99736 15.625 7.99736H14.375C14.03 7.99736 13.75 8.27743 13.75 8.62251V9.8728C13.75 10.2179 14.03 10.4979 14.375 10.4979ZM14.375 15.4988H15.625C15.97 15.4988 16.25 15.2191 16.25 14.8737V13.6234C16.25 13.2783 15.97 12.9982 15.625 12.9982H14.375C14.03 12.9982 13.75 13.2783 13.75 13.6234V14.8737C13.75 15.2194 14.03 15.4988 14.375 15.4988ZM10.625 12.9982H9.375C9.03 12.9982 8.75 13.2783 8.75 13.6234V14.8737C8.75 15.2191 9.03 15.4988 9.375 15.4988H10.625C10.97 15.4988 11.25 15.2191 11.25 14.8737V13.6234C11.25 13.2786 10.97 12.9982 10.625 12.9982ZM10.625 7.99736H9.375C9.03 7.99736 8.75 8.27743 8.75 8.62251V9.8728C8.75 10.2179 9.03 10.4979 9.375 10.4979H10.625C10.97 10.4979 11.25 10.2179 11.25 9.8728V8.62251C11.25 8.27712 10.97 7.99736 10.625 7.99736ZM5.625 7.99736H4.375C4.03 7.99736 3.75 8.27743 3.75 8.62251V9.8728C3.75 10.2179 4.03 10.4979 4.375 10.4979H5.625C5.97 10.4979 6.25 10.2179 6.25 9.8728V8.62251C6.25 8.27712 5.97 7.99736 5.625 7.99736ZM5.625 12.9982H4.375C4.03 12.9982 3.75 13.2783 3.75 13.6234V14.8737C3.75 15.2191 4.03 15.4988 4.375 15.4988H5.625C5.97 15.4988 6.25 15.2191 6.25 14.8737V13.6234C6.25 13.2786 5.97 12.9982 5.625 12.9982Z" fill="#BCBCBC"/>
</svg>
