<svg width="20" height="20" viewBox="0 0 20 20" fill="none" xmlns="http://www.w3.org/2000/svg">
<path d="M2.83017 5.84416C3.04165 5.62379 3.32843 5.5 3.62745 5.5C3.92648 5.5 4.21326 5.62379 4.42473 5.84416L10.0068 11.6627L15.5889 5.84416C15.8016 5.63004 16.0864 5.51156 16.3821 5.51424C16.6778 5.51692 16.9606 5.64054 17.1697 5.85848C17.3788 6.07642 17.4974 6.37124 17.5 6.67944C17.5025 6.98764 17.3889 7.28457 17.1834 7.50626L10.8041 14.1558C10.5926 14.3762 10.3058 14.5 10.0068 14.5C9.70778 14.5 9.421 14.3762 9.20953 14.1558L2.83017 7.50626C2.61876 7.28583 2.5 6.9869 2.5 6.67521C2.5 6.36352 2.61876 6.06459 2.83017 5.84416Z" fill="white"/>
</svg>
