<svg width="30" height="34" viewBox="0 0 30 34" fill="none" xmlns="http://www.w3.org/2000/svg">
<path d="M20.9998 5.00301C24.2623 5.02101 26.0293 5.16651 27.1813 6.31851C28.4998 7.63701 28.4998 9.75801 28.4998 14V23C28.4998 27.2435 28.4998 29.3645 27.1813 30.683C25.8643 32 23.7418 32 19.4998 32H10.4998C6.25776 32 4.13526 32 2.81826 30.683C1.49976 29.363 1.49976 27.2435 1.49976 23V14C1.49976 9.75801 1.49976 7.63701 2.81826 6.31851C3.97026 5.16651 5.73726 5.02101 8.99976 5.00301" stroke="white" stroke-width="2.25"/>
<path d="M12.7498 20H22.4998M7.49976 20H8.24976M7.49976 14.75H8.24976M7.49976 25.25H8.24976M12.7498 14.75H22.4998M12.7498 25.25H22.4998" stroke="white" stroke-width="2.25" stroke-linecap="round"/>
<path d="M8.99976 4.25C8.99976 3.65326 9.23681 3.08097 9.65877 2.65901C10.0807 2.23705 10.653 2 11.2498 2H18.7498C19.3465 2 19.9188 2.23705 20.3407 2.65901C20.7627 3.08097 20.9998 3.65326 20.9998 4.25V5.75C20.9998 6.34674 20.7627 6.91903 20.3407 7.34099C19.9188 7.76295 19.3465 8 18.7498 8H11.2498C10.653 8 10.0807 7.76295 9.65877 7.34099C9.23681 6.91903 8.99976 6.34674 8.99976 5.75V4.25Z" stroke="white" stroke-width="2.25"/>
</svg>
