<svg width="20" height="20" viewBox="0 0 20 20" fill="none" xmlns="http://www.w3.org/2000/svg">
<path d="M12.457 2V1.5H11.957L2.95703 1.5H2.45703V2L2.45703 18V18.5H2.95703H11.957H12.457V18V17C12.457 16.8674 12.5097 16.7402 12.6035 16.6464C12.6972 16.5527 12.8244 16.5 12.957 16.5C13.0896 16.5 13.2168 16.5527 13.3106 16.6464C13.4044 16.7402 13.457 16.8674 13.457 17V18C13.457 18.3978 13.299 18.7794 13.0177 19.0607C12.7364 19.342 12.3549 19.5 11.957 19.5H2.95703C2.55921 19.5 2.17768 19.342 1.89637 19.0607C1.61507 18.7794 1.45703 18.3978 1.45703 18L1.45703 2C1.45703 1.60218 1.61507 1.22064 1.89637 0.93934C2.17768 0.658035 2.55921 0.5 2.95703 0.5L11.957 0.5C12.3549 0.5 12.7364 0.658035 13.0177 0.93934C13.299 1.22064 13.457 1.60218 13.457 2V3C13.457 3.13261 13.4044 3.25979 13.3106 3.35355C13.2168 3.44732 13.0896 3.5 12.957 3.5C12.8244 3.5 12.6972 3.44732 12.6035 3.35355C12.5097 3.25978 12.457 3.13261 12.457 3V2Z" fill="white" stroke="white"/>
<path d="M13.752 14.295C14.142 14.685 14.772 14.685 15.162 14.295L18.75 10.707C18.9375 10.5195 19.0428 10.2652 19.0428 10C19.0428 9.73484 18.9375 9.48053 18.75 9.293L15.162 5.705C14.9719 5.5332 14.7231 5.441 14.467 5.44746C14.2108 5.45393 13.967 5.55857 13.7858 5.73974C13.6046 5.92092 13.5 6.16479 13.4935 6.42093C13.487 6.67708 13.5792 6.92591 13.751 7.116L15.627 9H6.95703C6.69181 9 6.43746 9.10536 6.24992 9.2929C6.06239 9.48043 5.95703 9.73479 5.95703 10C5.95703 10.2652 6.06239 10.5196 6.24992 10.7071C6.43746 10.8946 6.69181 11 6.95703 11H15.627L13.751 12.884C13.5646 13.0715 13.4601 13.3253 13.4602 13.5897C13.4604 13.8541 13.5653 14.1077 13.752 14.295Z" fill="white"/>
</svg>
