<svg width="16" height="15" viewBox="0 0 16 15" fill="none" xmlns="http://www.w3.org/2000/svg">
<path d="M7.875 10.8516C7.75 10.8516 7.63281 10.8322 7.52344 10.7934C7.41406 10.7547 7.3125 10.6881 7.21875 10.5938L3.84375 7.21875C3.67188 7.04688 3.58594 6.82813 3.58594 6.5625C3.58594 6.29688 3.67188 6.07813 3.84375 5.90625C4.01562 5.73438 4.23844 5.64469 4.51219 5.63719C4.78594 5.62969 5.00844 5.71156 5.17969 5.88281L6.9375 7.64063V0.937503C6.9375 0.671878 7.0275 0.449066 7.2075 0.269066C7.3875 0.0890659 7.61 -0.000621756 7.875 3.24394e-06C8.14062 3.24394e-06 8.36344 0.0900033 8.54344 0.270003C8.72344 0.450003 8.81312 0.672503 8.8125 0.937503V7.64063L10.5703 5.88281C10.7422 5.71094 10.965 5.62875 11.2387 5.63625C11.5125 5.64375 11.735 5.73375 11.9062 5.90625C12.0781 6.07813 12.1641 6.29688 12.1641 6.5625C12.1641 6.82813 12.0781 7.04688 11.9062 7.21875L8.53125 10.5938C8.4375 10.6875 8.33594 10.7541 8.22656 10.7934C8.11719 10.8328 8 10.8522 7.875 10.8516ZM2.25 15C1.73438 15 1.29281 14.8162 0.925314 14.4487C0.557814 14.0812 0.374377 13.64 0.375002 13.125V11.25C0.375002 10.9844 0.465002 10.7616 0.645002 10.5816C0.825002 10.4016 1.0475 10.3119 1.3125 10.3125C1.57813 10.3125 1.80094 10.4025 1.98094 10.5825C2.16094 10.7625 2.25063 10.985 2.25 11.25V13.125H13.5V11.25C13.5 10.9844 13.59 10.7616 13.77 10.5816C13.95 10.4016 14.1725 10.3119 14.4375 10.3125C14.7031 10.3125 14.9259 10.4025 15.1059 10.5825C15.2859 10.7625 15.3756 10.985 15.375 11.25V13.125C15.375 13.6406 15.1912 14.0822 14.8237 14.4497C14.4562 14.8172 14.015 15.0006 13.5 15H2.25Z" fill="white"/>
</svg>
