<svg width="15" height="10" viewBox="0 0 15 10" fill="none" xmlns="http://www.w3.org/2000/svg">
<path d="M6.64583 9.75C6.1971 9.75 5.83333 9.38623 5.83333 8.9375C5.83333 8.48877 6.1971 8.125 6.64583 8.125H8.35417C8.8029 8.125 9.16667 8.48877 9.16667 8.9375C9.16667 9.38623 8.8029 9.75 8.35417 9.75H6.64583ZM3.3125 5.6875C2.86377 5.6875 2.5 5.32373 2.5 4.875C2.5 4.42627 2.86377 4.0625 3.3125 4.0625H11.6875C12.1362 4.0625 12.5 4.42627 12.5 4.875C12.5 5.32373 12.1362 5.6875 11.6875 5.6875H3.3125ZM0.8125 1.625C0.363769 1.625 0 1.26123 0 0.8125C0 0.363769 0.363769 0 0.8125 0H14.1875C14.6362 0 15 0.363769 15 0.8125C15 1.26123 14.6362 1.625 14.1875 1.625H0.8125Z" fill="white"/>
</svg>
