<svg width="37" height="31" viewBox="0 0 37 31" fill="none" xmlns="http://www.w3.org/2000/svg">
<path d="M10.5092 7.45985C9.84415 7.62434 9.21104 8.00912 8.6664 8.59674L1.52612 16.3004C0.491294 17.4169 0.491294 19.6499 1.52612 20.7664L8.6664 28.4701C9.41147 29.2739 10.3221 29.6982 11.2535 29.6982H24.9131C25.8445 29.6982 26.7551 29.2739 27.5002 28.4701L34.6405 20.7664C35.6753 19.6499 35.6753 17.4169 34.6405 16.3004L27.5002 8.59674C26.9098 7.9598 26.2155 7.56118 25.4894 7.4231" stroke="#00B26B" stroke-width="1.5"/>
<path d="M18.083 20.4756C19.3238 20.4756 20.4375 21.5936 20.4375 23.126C20.4373 24.6581 19.3237 25.7753 18.083 25.7754C16.8423 25.7754 15.7287 24.6582 15.7285 23.126C15.7285 21.5936 16.8422 20.4756 18.083 20.4756ZM7.73535 15.9434C8.9761 15.9435 10.0898 17.0605 10.0898 18.5928C10.0898 20.1251 8.97612 21.2421 7.73535 21.2422C6.49451 21.2422 5.38086 20.1252 5.38086 18.5928C5.38091 17.0604 6.49453 15.9434 7.73535 15.9434ZM28.4307 15.9434C29.6715 15.9434 30.7851 17.0604 30.7852 18.5928C30.7852 20.1252 29.6715 21.2422 28.4307 21.2422C27.1898 21.2422 26.0762 20.1252 26.0762 18.5928C26.0762 17.0604 27.1898 15.9434 28.4307 15.9434Z" stroke="#00B26B" stroke-width="1.5"/>
<path d="M15.104 0.100342C15.9812 0.100358 16.5856 0.669543 17.0513 1.4939C17.5162 2.31713 17.8586 3.42144 18.2036 4.54077C18.4403 5.30745 18.7171 6.20839 19.0366 6.91772C19.1965 7.2727 19.3646 7.57339 19.5396 7.78394C19.7163 7.99662 19.8852 8.10027 20.0464 8.10034C20.4831 8.10034 20.8145 7.90182 21.0698 7.59448C21.3275 7.28427 21.506 6.86435 21.6284 6.4353C21.7504 6.0078 21.8143 5.57786 21.8481 5.25171C21.865 5.08879 21.8744 4.95186 21.8794 4.85522C21.8819 4.80693 21.8835 4.76857 21.8843 4.74194C21.8847 4.72866 21.8851 4.71792 21.8853 4.71069V4.60034H23.1831V4.69995C23.1831 4.79556 23.175 5.93443 22.7856 7.05249C22.3965 8.16968 21.6121 9.29956 20.0464 9.29956C19.1692 9.29949 18.5679 8.73143 18.105 7.90894C17.6428 7.08768 17.3024 5.98641 16.9575 4.86987C16.7071 4.05818 16.4277 3.15436 16.1089 2.45386C15.9494 2.10341 15.7834 1.80952 15.6099 1.60522C15.435 1.3994 15.2665 1.29958 15.104 1.29956C14.6747 1.29956 14.348 1.49792 14.0952 1.80542C13.8402 2.11568 13.6627 2.53549 13.5405 2.9646C13.4188 3.39238 13.3542 3.82294 13.3198 4.14917C13.3027 4.31184 13.2928 4.44811 13.2876 4.54468C13.285 4.59288 13.2836 4.63133 13.2827 4.65796C13.2823 4.67128 13.2819 4.68198 13.2817 4.68921V4.79956H11.9839V4.69995C11.9839 4.60436 11.9921 3.4654 12.3794 2.34741C12.7664 1.23057 13.5463 0.100342 15.104 0.100342Z" fill="#00B26B" stroke="#00B26B" stroke-width="0.2"/>
</svg>
