<svg width="31" height="31" viewBox="0 0 31 31" fill="none" xmlns="http://www.w3.org/2000/svg">
<path d="M27.5583 17.158V17.1638C27.8267 17.1872 28.0793 17.3048 28.2712 17.4968C28.4867 17.7124 28.6081 18.0045 28.6082 18.3093V27.1169L28.614 27.5574C28.6057 28.5428 28.4329 29.2462 27.9255 29.7146H27.9246C27.4545 30.147 26.8069 30.3019 26.0095 30.2996L25.658 30.2898H4.90894C3.9191 30.2406 3.12752 29.8361 2.75952 29.0007L2.67554 28.7947C2.49516 28.305 2.41188 27.7445 2.41187 27.1179V18.3083C2.41187 18.0034 2.53317 17.7105 2.74878 17.4949C2.96433 17.2794 3.2565 17.158 3.56128 17.158C3.86621 17.158 4.15915 17.2792 4.37476 17.4949C4.59028 17.7105 4.71069 18.0034 4.71069 18.3083V27.1179C4.71071 27.4565 4.74898 27.7263 4.8103 27.9265L4.82983 27.9812C4.86309 27.9827 4.91063 27.9865 4.96948 27.99H25.7234C25.9909 28.0053 26.1832 27.9975 26.3015 27.9919C26.3015 27.9882 26.3015 27.984 26.3015 27.9802C26.302 27.9291 26.3041 27.8631 26.3064 27.7859C26.3111 27.6294 26.3163 27.4179 26.3074 27.157V18.3083C26.3074 18.1572 26.3374 18.0075 26.3953 17.8679C26.4531 17.7283 26.5374 17.6007 26.6443 17.4939C26.7512 17.3871 26.8787 17.3026 27.0183 17.2449C27.1579 17.1873 27.3077 17.1577 27.4587 17.158H27.5583ZM15.8455 0.100342C16.2177 0.100342 16.5528 0.229168 16.863 0.463623L16.9939 0.570068L16.9968 0.572998L29.9304 12.781L30.0095 12.8621C30.0849 12.947 30.1476 13.0426 30.1951 13.1462C30.2584 13.2846 30.2935 13.4346 30.2986 13.5867C30.3037 13.7387 30.2792 13.8907 30.2253 14.033C30.1715 14.1751 30.0896 14.3053 29.9851 14.4158C29.8806 14.5263 29.755 14.6148 29.616 14.6765C29.4771 14.7381 29.3274 14.7718 29.1755 14.7751C29.0235 14.7785 28.8718 14.7516 28.7302 14.696C28.5888 14.6406 28.4595 14.5576 28.3503 14.4519V14.4509L15.7947 2.59741L2.00073 14.4861L2.00171 14.4871C1.77088 14.6864 1.4699 14.7857 1.16577 14.7634C0.861721 14.7411 0.578904 14.5987 0.379639 14.3679C0.180384 14.137 0.0809723 13.8362 0.103271 13.532C0.125599 13.2278 0.267949 12.9452 0.498779 12.7458V12.7449L14.6638 0.539795L14.6687 0.534912L14.7976 0.439209L14.8044 0.434326L14.9294 0.361084C15.1529 0.236262 15.3813 0.15225 15.6218 0.118896L15.6042 0.100342H15.8455Z" fill="#00B26B" stroke="#00B26B" stroke-width="0.2"/>
</svg>
