<svg width="20" height="20" viewBox="0 0 20 20" fill="none" xmlns="http://www.w3.org/2000/svg">
<path fill-rule="evenodd" clip-rule="evenodd" d="M10 18.125C12.1549 18.125 14.2215 17.269 15.7452 15.7452C17.269 14.2215 18.125 12.1549 18.125 10C18.125 7.84512 17.269 5.77849 15.7452 4.25476C14.2215 2.73102 12.1549 1.875 10 1.875C7.84512 1.875 5.77849 2.73102 4.25476 4.25476C2.73102 5.77849 1.875 7.84512 1.875 10C1.875 12.1549 2.73102 14.2215 4.25476 15.7452C5.77849 17.269 7.84512 18.125 10 18.125ZM10 20C12.6522 20 15.1957 18.9464 17.0711 17.0711C18.9464 15.1957 20 12.6522 20 10C20 7.34784 18.9464 4.8043 17.0711 2.92893C15.1957 1.05357 12.6522 0 10 0C7.34784 0 4.8043 1.05357 2.92893 2.92893C1.05357 4.8043 0 7.34784 0 10C0 12.6522 1.05357 15.1957 2.92893 17.0711C4.8043 18.9464 7.34784 20 10 20Z" fill="#D72736"/>
<path d="M7.62141 13.3706L10.0039 10.9881L12.3878 13.372L12.3878 13.372L12.3909 13.375C12.5234 13.503 12.7009 13.5739 12.8852 13.5723C13.0694 13.5707 13.2456 13.4968 13.3759 13.3665C13.5062 13.2362 13.5801 13.06 13.5817 12.8757C13.5833 12.6915 13.5125 12.514 13.3845 12.3815L13.3845 12.3815L13.3814 12.3784L10.9975 9.99452L13.3814 7.61064L13.3814 7.61067L13.3845 7.60754C13.5125 7.47502 13.5833 7.29753 13.5817 7.11329C13.5801 6.92906 13.5062 6.75283 13.3759 6.62255C13.2456 6.49227 13.0694 6.41838 12.8852 6.41677C12.7009 6.41517 12.5234 6.486 12.3909 6.61399L12.3909 6.61396L12.3878 6.61704L10.0039 9.00092L7.62006 6.61704L7.62015 6.61694L7.61429 6.61145C7.48117 6.48662 7.30471 6.41848 7.12224 6.42144C6.93977 6.4244 6.76562 6.49824 6.63662 6.62733C6.50763 6.75641 6.43392 6.93062 6.43108 7.11309C6.42825 7.29556 6.49652 7.47197 6.62144 7.605L6.62135 7.60509L6.62689 7.61062L9.01035 9.9945L6.62782 12.377C6.56152 12.4415 6.50859 12.5184 6.47209 12.6034C6.43526 12.6892 6.41588 12.7814 6.41507 12.8747C6.41425 12.968 6.43203 13.0605 6.46736 13.1468C6.50269 13.2332 6.55487 13.3116 6.62084 13.3776L6.62084 13.3776C6.68682 13.4436 6.76527 13.4958 6.85162 13.5311C6.93797 13.5664 7.0305 13.5842 7.1238 13.5834C7.2171 13.5826 7.3093 13.5632 7.39502 13.5264C7.48001 13.4899 7.55694 13.4369 7.62141 13.3706Z" fill="#D72736" stroke="#D72736" stroke-width="0.5"/>
</svg>
