<svg width="34" height="20" viewBox="0 0 34 20" fill="none" xmlns="http://www.w3.org/2000/svg">
<path d="M10 18.125C12.1549 18.125 14.2215 17.269 15.7452 15.7452L15.7862 15.7039C16.1234 16.1895 16.5052 16.6473 16.9289 17.0711C16.9525 17.0947 16.9762 17.1181 17 17.1414C15.1317 18.9728 12.6188 20 10 20C7.34783 20 4.8043 18.9464 2.92893 17.0711C1.05357 15.1957 0 12.6522 0 10C0 7.34784 1.05357 4.8043 2.92893 2.92893C4.8043 1.05357 7.34783 0 10 0C12.6188 0 15.1317 1.02724 17 2.85857C16.9762 2.88189 16.9525 2.90535 16.9289 2.92893C16.5052 3.35268 16.1234 3.81054 15.7862 4.29605L15.7452 4.25476C14.2215 2.73102 12.1549 1.875 10 1.875C7.84512 1.875 5.77849 2.73102 4.25476 4.25476C2.73102 5.77849 1.875 7.84512 1.875 10C1.875 12.1549 2.73102 14.2215 4.25476 15.7452C5.77849 17.269 7.84512 18.125 10 18.125Z" fill="#EAB42A"/>
<path d="M11.25 13.75C11.25 14.0815 11.1183 14.3995 10.8839 14.6339C10.6495 14.8683 10.3315 15 10 15C9.66848 15 9.35054 14.8683 9.11612 14.6339C8.8817 14.3995 8.75 14.0815 8.75 13.75C8.75 13.4185 8.8817 13.1005 9.11612 12.8661C9.35054 12.6317 9.66848 12.5 10 12.5C10.3315 12.5 10.6495 12.6317 10.8839 12.8661C11.1183 13.1005 11.25 13.4185 11.25 13.75Z" fill="#EAB42A"/>
<path d="M10.9375 5.9375C10.9375 5.68886 10.8387 5.4504 10.6629 5.27459C10.4871 5.09877 10.2486 5 10 5C9.75136 5 9.5129 5.09877 9.33709 5.27459C9.16127 5.4504 9.0625 5.68886 9.0625 5.9375V10.3125C9.0625 10.5611 9.16127 10.7996 9.33709 10.9754C9.5129 11.1512 9.75136 11.25 10 11.25C10.2486 11.25 10.4871 11.1512 10.6629 10.9754C10.8387 10.7996 10.9375 10.5611 10.9375 10.3125V5.9375Z" fill="#EAB42A"/>
<path fill-rule="evenodd" clip-rule="evenodd" d="M24 18.125C26.1549 18.125 28.2215 17.269 29.7452 15.7452C31.269 14.2215 32.125 12.1549 32.125 10C32.125 7.84512 31.269 5.77849 29.7452 4.25476C28.2215 2.73102 26.1549 1.875 24 1.875C21.8451 1.875 19.7785 2.73102 18.2548 4.25476C16.731 5.77849 15.875 7.84512 15.875 10C15.875 12.1549 16.731 14.2215 18.2548 15.7452C19.7785 17.269 21.8451 18.125 24 18.125ZM24 20C26.6522 20 29.1957 18.9464 31.0711 17.0711C32.9464 15.1957 34 12.6522 34 10C34 7.34784 32.9464 4.8043 31.0711 2.92893C29.1957 1.05357 26.6522 0 24 0C21.3478 0 18.8043 1.05357 16.9289 2.92893C15.0536 4.8043 14 7.34784 14 10C14 12.6522 15.0536 15.1957 16.9289 17.0711C18.8043 18.9464 21.3478 20 24 20Z" fill="#D72736"/>
<path d="M21.6214 13.3706L24.0039 10.9881L26.3878 13.372L26.3878 13.372L26.3909 13.375C26.5234 13.503 26.7009 13.5739 26.8852 13.5723C27.0694 13.5707 27.2456 13.4968 27.3759 13.3665C27.5062 13.2362 27.5801 13.06 27.5817 12.8757C27.5833 12.6915 27.5125 12.514 27.3845 12.3815L27.3845 12.3815L27.3814 12.3784L24.9975 9.99452L27.3814 7.61064L27.3814 7.61067L27.3845 7.60754C27.5125 7.47502 27.5833 7.29753 27.5817 7.11329C27.5801 6.92906 27.5062 6.75283 27.3759 6.62255C27.2456 6.49227 27.0694 6.41838 26.8852 6.41677C26.7009 6.41517 26.5234 6.486 26.3909 6.61399L26.3909 6.61396L26.3878 6.61704L24.0039 9.00092L21.6201 6.61704L21.6201 6.61694L21.6143 6.61145C21.4812 6.48662 21.3047 6.41848 21.1222 6.42144C20.9398 6.4244 20.7656 6.49824 20.6366 6.62733C20.5076 6.75641 20.4339 6.93062 20.4311 7.11309C20.4282 7.29556 20.4965 7.47197 20.6214 7.605L20.6214 7.60509L20.6269 7.61062L23.0103 9.9945L20.6278 12.377C20.5615 12.4415 20.5086 12.5184 20.4721 12.6034C20.4353 12.6892 20.4159 12.7814 20.4151 12.8747C20.4143 12.968 20.432 13.0605 20.4674 13.1468C20.5027 13.2332 20.5549 13.3116 20.6208 13.3776L20.6208 13.3776C20.6868 13.4436 20.7653 13.4958 20.8516 13.5311C20.938 13.5664 21.0305 13.5842 21.1238 13.5834C21.2171 13.5826 21.3093 13.5632 21.395 13.5264C21.48 13.4899 21.5569 13.4369 21.6214 13.3706Z" fill="#D72736" stroke="#D72736" stroke-width="0.5"/>
</svg>
