<svg width="15" height="15" viewBox="0 0 15 15" fill="none" xmlns="http://www.w3.org/2000/svg">
<path fill-rule="evenodd" clip-rule="evenodd" d="M7.5 1.40625C5.88384 1.40625 4.33387 2.04827 3.19107 3.19107C2.04827 4.33387 1.40625 5.88384 1.40625 7.5C1.40625 9.11616 2.04827 10.6661 3.19107 11.8089C4.33387 12.9517 5.88384 13.5938 7.5 13.5938C9.11616 13.5938 10.6661 12.9517 11.8089 11.8089C12.9517 10.6661 13.5938 9.11616 13.5938 7.5C13.5938 5.88384 12.9517 4.33387 11.8089 3.19107C10.6661 2.04827 9.11616 1.40625 7.5 1.40625ZM7.5 3.57628e-07C5.51088 3.57628e-07 3.60322 0.790177 2.1967 2.1967C0.790177 3.60322 3.57628e-07 5.51088 3.57628e-07 7.5C3.57628e-07 9.48912 0.790177 11.3968 2.1967 12.8033C3.60322 14.2098 5.51088 15 7.5 15C9.48912 15 11.3968 14.2098 12.8033 12.8033C14.2098 11.3968 15 9.48912 15 7.5C15 5.51088 14.2098 3.60322 12.8033 2.1967C11.3968 0.790177 9.48912 3.57628e-07 7.5 3.57628e-07ZM6.5625 4.6875C6.5625 4.43886 6.66127 4.2004 6.83709 4.02459C7.0129 3.84877 7.25136 3.75 7.5 3.75C7.74864 3.75 7.9871 3.84877 8.16291 4.02459C8.33873 4.2004 8.4375 4.43886 8.4375 4.6875C8.4375 4.93614 8.33873 5.1746 8.16291 5.35041C7.9871 5.52623 7.74864 5.625 7.5 5.625C7.25136 5.625 7.0129 5.52623 6.83709 5.35041C6.66127 5.1746 6.5625 4.93614 6.5625 4.6875ZM6.79688 10.5469C6.79688 10.7334 6.87095 10.9122 7.00282 11.0441C7.13468 11.1759 7.31352 11.25 7.5 11.25C7.68648 11.25 7.86532 11.1759 7.99718 11.0441C8.12905 10.9122 8.20313 10.7334 8.20313 10.5469L8.20313 7.26563C8.20313 7.07914 8.12905 6.9003 7.99718 6.76844C7.86532 6.63658 7.68648 6.5625 7.5 6.5625C7.31352 6.5625 7.13468 6.63658 7.00282 6.76844C6.87095 6.9003 6.79688 7.07914 6.79688 7.26563L6.79688 10.5469Z" fill="#06CB3F"/>
</svg>
