<svg width="37" height="37" viewBox="0 0 37 37" fill="none" xmlns="http://www.w3.org/2000/svg">
<path d="M0.899902 18.3999C0.899902 28.0652 8.73465 35.8999 18.3999 35.8999C28.0652 35.8999 35.8999 28.0652 35.8999 18.3999C35.8999 8.73465 28.0652 0.899902 18.3999 0.899902C8.73465 0.899902 0.899902 8.73465 0.899902 18.3999Z" stroke="#00B26B" stroke-width="1.8" stroke-linecap="round" stroke-linejoin="round"/>
<path d="M20.1504 0.987549C20.1504 0.987549 25.4004 7.90005 25.4004 18.4C25.4004 28.9001 20.1504 35.8126 20.1504 35.8126M16.6504 35.8126C16.6504 35.8126 11.4004 28.9001 11.4004 18.4C11.4004 7.90005 16.6504 0.987549 16.6504 0.987549M2.00293 24.5251H34.7979M2.00293 12.275H34.7979" stroke="#00B26B" stroke-width="1.8" stroke-linecap="round" stroke-linejoin="round"/>
</svg>
