<svg width="37" height="32" viewBox="0 0 37 32" fill="none" xmlns="http://www.w3.org/2000/svg">
<path d="M10.5092 8.04285C9.84415 8.20735 9.21104 8.59213 8.6664 9.17975L1.52612 16.8835C0.491294 17.9999 0.491294 20.2329 1.52612 21.3494L8.6664 29.0531C9.41147 29.8569 10.3221 30.2812 11.2535 30.2812H24.9131C25.8445 30.2812 26.7551 29.8569 27.5002 29.0531L34.6405 21.3494C35.6753 20.2329 35.6753 17.9999 34.6405 16.8835L27.5002 9.17975C26.9098 8.54281 26.2155 8.14419 25.4894 8.0061" stroke="#00B26B" stroke-width="1.5"/>
<path d="M18.083 21.0586C19.3238 21.0587 20.4375 22.1766 20.4375 23.709C20.4373 25.2411 19.3237 26.3583 18.083 26.3584C16.8423 26.3584 15.7287 25.2412 15.7285 23.709C15.7285 22.1766 16.8422 21.0586 18.083 21.0586ZM7.73535 16.5264C8.9761 16.5265 10.0898 17.6435 10.0898 19.1758C10.0898 20.7081 8.97612 21.8251 7.73535 21.8252C6.49451 21.8252 5.38086 20.7082 5.38086 19.1758C5.38091 17.6434 6.49453 16.5264 7.73535 16.5264ZM28.4307 16.5264C29.6715 16.5264 30.7851 17.6434 30.7852 19.1758C30.7852 20.7082 29.6715 21.8252 28.4307 21.8252C27.1898 21.8252 26.0762 20.7082 26.0762 19.1758C26.0762 17.6434 27.1898 16.5264 28.4307 16.5264Z" stroke="#00B26B" stroke-width="1.5"/>
<path d="M19.5127 0.100342C20.481 0.100393 21.3183 0.481236 21.9121 1.15796C22.5051 1.83381 22.8496 2.79839 22.8496 3.95679C22.8495 5.11494 22.5045 6.09078 21.9121 6.77905C21.3188 7.46836 20.4821 7.86396 19.5127 7.86401H17.2939V12.2996H15.6504V0.100342H19.5127ZM17.2939 6.2019H19.2793C19.873 6.20187 20.3435 5.98718 20.667 5.6062C20.992 5.22334 21.1767 4.6623 21.1768 3.95679C21.1768 3.25102 20.9914 2.70263 20.6689 2.33276C20.348 1.96485 19.8817 1.76152 19.2939 1.76147H17.2939V6.2019Z" fill="#00B26B" stroke="#00B26B" stroke-width="0.2"/>
</svg>
