<svg width="34" height="34" viewBox="0 0 34 34" fill="none" xmlns="http://www.w3.org/2000/svg">
<path d="M12.5511 6.03846L13.6318 3.47692C13.8141 3.04322 14.1348 2.67018 14.5519 2.40664C14.969 2.14311 15.463 2.00137 15.9693 2H18.0303C18.5366 2.00137 19.0306 2.14311 19.4477 2.40664C19.8648 2.67018 20.1855 3.04322 20.3677 3.47692L21.4485 6.03846L25.1181 7.97692L28.0839 7.56154C28.5777 7.49999 29.0803 7.57463 29.5279 7.77598C29.9754 7.97732 30.3476 8.29627 30.5973 8.69231L31.6026 10.3077C31.8602 10.71 31.9789 11.1746 31.943 11.6402C31.9071 12.1058 31.7183 12.5504 31.4016 12.9154L29.5668 15.0615V18.9385L31.4518 21.0846C31.7686 21.4496 31.9574 21.8942 31.9933 22.3598C32.0292 22.8254 31.9105 23.29 31.6529 23.6923L30.6475 25.3077C30.3979 25.7037 30.0257 26.0227 29.5781 26.224C29.1306 26.4254 28.628 26.5 28.1341 26.4385L25.1683 26.0231L21.4988 27.9615L20.418 30.5231C20.2357 30.9568 19.9151 31.3298 19.498 31.5934C19.0809 31.8569 18.5869 31.9986 18.0806 32H15.9693C15.463 31.9986 14.969 31.8569 14.5519 31.5934C14.1348 31.3298 13.8141 30.9568 13.6318 30.5231L12.5511 27.9615L8.88152 26.0231L5.91571 26.4385C5.42187 26.5 4.91925 26.4254 4.47172 26.224C4.02419 26.0227 3.65196 25.7037 3.40232 25.3077L2.39696 23.6923C2.13934 23.29 2.02065 22.8254 2.05654 22.3598C2.09244 21.8942 2.28124 21.4496 2.59803 21.0846L4.43281 18.9385V15.0615L2.54776 12.9154C2.23098 12.5504 2.04217 12.1058 2.00628 11.6402C1.97038 11.1746 2.08907 10.71 2.34669 10.3077L3.35205 8.69231C3.60169 8.29627 3.97392 7.97732 4.42146 7.77598C4.86899 7.57463 5.37161 7.49999 5.86545 7.56154L8.83125 7.97692L12.5511 6.03846ZM11.973 17C11.973 17.9128 12.2678 18.8052 12.8202 19.5642C13.3725 20.3232 14.1576 20.9147 15.0761 21.2641C15.9946 21.6134 17.0054 21.7048 17.9805 21.5267C18.9556 21.3486 19.8513 20.909 20.5543 20.2636C21.2573 19.6181 21.736 18.7957 21.93 17.9004C22.124 17.0051 22.0244 16.0771 21.6439 15.2338C21.2635 14.3904 20.6192 13.6696 19.7925 13.1624C18.9659 12.6553 17.994 12.3846 16.9998 12.3846C15.6666 12.3846 14.388 12.8709 13.4453 13.7364C12.5026 14.602 11.973 15.7759 11.973 17Z" stroke="white" stroke-width="2.57143" stroke-linecap="round" stroke-linejoin="round"/>
</svg>
