<svg width="32" height="40" viewBox="0 0 32 40" fill="none" xmlns="http://www.w3.org/2000/svg">
<path d="M20.6053 11.7649C20.529 11.655 20.4753 11.5311 20.4471 11.4005C20.4189 11.2699 20.4168 11.135 20.441 11.0035C20.4652 10.8721 20.5151 10.7467 20.588 10.6345C20.6609 10.5223 20.7553 10.4255 20.8657 10.3496C22.527 9.20887 25.1311 9.20887 26.7923 10.3496C27.7523 11.0089 29.4374 11.0089 30.3973 10.3496C30.6203 10.1963 30.8954 10.1375 31.1619 10.1861C31.4284 10.2348 31.6646 10.3869 31.8186 10.6089C31.9725 10.831 32.0315 11.1049 31.9827 11.3703C31.9339 11.6357 31.7812 11.871 31.5582 12.0242C30.6717 12.5833 29.6441 12.8801 28.5948 12.8801C27.5456 12.8801 26.518 12.5833 25.6315 12.0242C24.6716 11.3649 22.9865 11.3649 22.0265 12.0242C21.9161 12.1002 21.7918 12.1538 21.6606 12.1818C21.5294 12.2099 21.3939 12.212 21.262 12.1879C21.13 12.1638 21.004 12.114 20.8914 12.0415C20.7787 11.9689 20.6815 11.8749 20.6053 11.7649ZM30.3973 15.7736C29.4374 16.4329 27.7523 16.4329 26.7923 15.7736C25.1311 14.6328 22.527 14.6328 20.8657 15.7736C20.7553 15.8495 20.661 15.9463 20.5881 16.0585C20.5153 16.1707 20.4654 16.2961 20.4412 16.4275C20.417 16.5589 20.419 16.6938 20.4472 16.8245C20.4754 16.9551 20.5291 17.0789 20.6053 17.1889C20.6815 17.2988 20.7788 17.3928 20.8914 17.4653C21.0041 17.5379 21.13 17.5876 21.262 17.6117C21.394 17.6357 21.5294 17.6337 21.6606 17.6057C21.7918 17.5776 21.9161 17.5241 22.0265 17.4482C22.9865 16.7889 24.6716 16.7889 25.6315 17.4482C26.518 18.0073 27.5456 18.304 28.5948 18.304C29.6441 18.304 30.6717 18.0073 31.5582 17.4482C31.7812 17.2949 31.9339 17.0597 31.9827 16.7943C32.0315 16.5288 31.9725 16.255 31.8186 16.0329C31.6646 15.8108 31.4284 15.6587 31.1619 15.6101C30.8954 15.5615 30.6203 15.6203 30.3973 15.7736ZM15.6591 29.4928C15.6589 30.4549 15.3846 31.3972 14.8681 32.2103C14.3516 33.0233 13.614 33.6738 12.7411 34.0861C11.8682 34.4984 10.8957 34.6557 9.93668 34.5396C8.97761 34.4235 8.0713 34.0388 7.323 33.4302C6.5747 32.8217 6.01513 32.0142 5.70927 31.1016C5.40342 30.1889 5.36383 29.2086 5.5951 28.2745C5.82638 27.3404 6.31903 26.4907 7.01583 25.8243C7.71264 25.1579 8.58501 24.702 9.53162 24.5095V6.44096C9.53162 6.17123 9.63921 5.91256 9.83073 5.72183C10.0223 5.53111 10.282 5.42396 10.5529 5.42396C10.8237 5.42396 11.0835 5.53111 11.275 5.72183C11.4665 5.91256 11.5741 6.17123 11.5741 6.44096V24.5095C12.7267 24.7455 13.7624 25.3699 14.5065 26.2777C15.2507 27.1855 15.6577 28.321 15.6591 29.4928ZM13.6166 29.4928C13.6166 28.8894 13.4369 28.2995 13.1003 27.7978C12.7636 27.296 12.2851 26.905 11.7253 26.6741C11.1655 26.4431 10.5495 26.3827 9.95516 26.5004C9.36085 26.6182 8.81495 26.9087 8.38647 27.3354C7.958 27.7621 7.66621 28.3057 7.548 28.8976C7.42978 29.4894 7.49045 30.1029 7.72234 30.6604C7.95423 31.2179 8.34691 31.6943 8.85074 32.0296C9.35457 32.3648 9.94691 32.5438 10.5529 32.5438C11.3654 32.5438 12.1447 32.2223 12.7192 31.6502C13.2938 31.078 13.6166 30.302 13.6166 29.4928ZM21.1057 29.4928C21.1054 31.2768 20.6491 33.0314 19.7796 34.5912C18.9102 36.1511 17.6563 37.4648 16.1361 38.4087C14.6159 39.3526 12.8794 39.8955 11.0903 39.9864C9.3011 40.0772 7.51817 39.713 5.90944 38.928C4.30071 38.143 2.91914 36.9631 1.89489 35.4994C0.870639 34.0357 0.237429 32.3365 0.0549129 30.5617C-0.127603 28.787 0.146585 26.9952 0.851646 25.3551C1.55671 23.7151 2.66943 22.2808 4.08498 21.1874V6.44096C4.08498 4.73271 4.76642 3.09443 5.97938 1.88651C7.19234 0.678599 8.83747 0 10.5529 0C12.2682 0 13.9134 0.678599 15.1263 1.88651C16.3393 3.09443 17.0207 4.73271 17.0207 6.44096V21.1874C18.292 22.1703 19.321 23.4296 20.0289 24.869C20.7369 26.3085 21.1052 27.89 21.1057 29.4928ZM19.0632 29.4928C19.0613 28.1277 18.7287 26.7832 18.0938 25.5734C17.4588 24.3636 16.5401 23.3242 15.4157 22.5433C15.2788 22.4484 15.1674 22.3215 15.0911 22.1738C15.0149 22.026 14.9761 21.8619 14.9783 21.6959V6.44096C14.9783 5.27216 14.512 4.15123 13.6821 3.32476C12.8522 2.49829 11.7265 2.03399 10.5529 2.03399C9.37917 2.03399 8.25356 2.49829 7.42364 3.32476C6.59371 4.15123 6.12747 5.27216 6.12747 6.44096V21.6959C6.1296 21.8619 6.09085 22.026 6.01459 22.1738C5.93834 22.3215 5.82691 22.4484 5.69004 22.5433C4.48889 23.3762 3.52373 24.5034 2.8878 25.8162C2.25186 27.1289 1.96665 28.5828 2.05971 30.0374C2.15278 31.4919 2.62097 32.898 3.41906 34.1198C4.21715 35.3415 5.31816 36.3377 6.61573 37.012C7.9133 37.6863 9.36356 38.0159 10.8264 37.9691C12.2893 37.9222 13.7153 37.5004 14.9667 36.7445C16.218 35.9886 17.2525 34.9241 17.9701 33.6538C18.6877 32.3835 19.0642 30.9503 19.0632 29.4928Z" fill="#00B26B"/>
</svg>
