<svg width="32" height="40" viewBox="0 0 32 40" fill="none" xmlns="http://www.w3.org/2000/svg">
<path d="M30.7692 8H23.3846V1.33333C23.3846 0.979711 23.2549 0.640573 23.0241 0.390524C22.7933 0.140476 22.4803 0 22.1538 0C21.8274 0 21.5144 0.140476 21.2836 0.390524C21.0527 0.640573 20.9231 0.979711 20.9231 1.33333V8H11.0769V1.33333C11.0769 0.979711 10.9473 0.640573 10.7164 0.390524C10.4856 0.140476 10.1726 0 9.84615 0C9.51973 0 9.20668 0.140476 8.97587 0.390524C8.74506 0.640573 8.61539 0.979711 8.61539 1.33333V8H1.31538C0.350769 8 0 8.79667 0 9.33333C0 9.68696 0.12967 10.0261 0.360484 10.2761C0.591298 10.5262 0.904349 10.6667 1.23077 10.6667H3.69231V25.3333C3.69231 27.1014 4.34066 28.7971 5.49473 30.0474C6.6488 31.2976 8.21405 32 9.84615 32H14.7692V38.6667C14.7692 39.0203 14.8989 39.3594 15.1297 39.6095C15.3605 39.8595 15.6736 40 16 40C16.3264 40 16.6395 39.8595 16.8703 39.6095C17.1011 39.3594 17.2308 39.0203 17.2308 38.6667V32H22.1538C23.7859 32 25.3512 31.2976 26.5053 30.0474C27.6593 28.7971 28.3077 27.1014 28.3077 25.3333V10.6667H30.7692C31.0957 10.6667 31.4087 10.5262 31.6395 10.2761C31.8703 10.0261 32 9.68696 32 9.33333C32 8.97971 31.8703 8.64057 31.6395 8.39052C31.4087 8.14048 31.0957 8 30.7692 8ZM22.1538 29.3333H9.84615C8.86689 29.3333 7.92774 28.9119 7.2353 28.1618C6.54286 27.4116 6.15385 26.3942 6.15385 25.3333V10.6667H25.8462V25.3333C25.8462 26.3942 25.4571 27.4116 24.7647 28.1618C24.0723 28.9119 23.1331 29.3333 22.1538 29.3333ZM19.4738 19.24C19.5871 19.4172 19.659 19.6216 19.6834 19.8355C19.7078 20.0494 19.6839 20.2666 19.6138 20.4683L17.7677 25.8017C17.653 26.1332 17.4215 26.4018 17.1241 26.5484C16.8266 26.695 16.4876 26.7075 16.1815 26.5833C15.8755 26.4591 15.6276 26.2083 15.4923 25.8861C15.357 25.5638 15.3453 25.1965 15.46 24.865L16.6908 21.3333H13.5385C13.3396 21.3333 13.1437 21.2811 12.9675 21.1811C12.7913 21.0812 12.6401 20.9365 12.5268 20.7594C12.4136 20.5823 12.3416 20.3781 12.3171 20.1643C12.2926 19.9505 12.3163 19.7334 12.3862 19.5317L14.2323 14.1983C14.347 13.8668 14.5785 13.5982 14.8759 13.4516C15.1734 13.305 15.5124 13.2925 15.8185 13.4167C16.1245 13.5409 16.3724 13.7917 16.5077 14.1139C16.6431 14.4362 16.6547 14.8035 16.54 15.135L15.3092 18.6667H18.4615C18.6605 18.6665 18.8565 18.7185 19.0328 18.8184C19.2091 18.9183 19.3604 19.0629 19.4738 19.24Z" fill="#00B26B"/>
</svg>
