<svg width="15" height="15" viewBox="0 0 15 15" fill="none" xmlns="http://www.w3.org/2000/svg">
<path d="M9.21 4.35142e-08C9.52482 8.16448e-05 9.83163 0.0992142 10.087 0.283356C10.3423 0.467497 10.5333 0.727313 10.6327 1.026L11.04 2.25H13.5C13.6989 2.25 13.8897 2.32902 14.0303 2.46967C14.171 2.61032 14.25 2.80109 14.25 3C14.25 3.19891 14.171 3.38968 14.0303 3.53033C13.8897 3.67098 13.6989 3.75 13.5 3.75L13.4977 3.80325L12.8475 12.9105C12.8069 13.478 12.5529 14.009 12.1365 14.3967C11.7202 14.7844 11.1724 14.9999 10.6035 15H4.3965C3.82759 14.9999 3.27983 14.7844 2.86347 14.3967C2.44712 14.009 2.19308 13.478 2.1525 12.9105L1.50225 3.8025C1.50089 3.78503 1.50014 3.76752 1.5 3.75C1.30109 3.75 1.11032 3.67098 0.96967 3.53033C0.829018 3.38968 0.75 3.19891 0.75 3C0.75 2.80109 0.829018 2.61032 0.96967 2.46967C1.11032 2.32902 1.30109 2.25 1.5 2.25H3.96L4.36725 1.026C4.46677 0.727191 4.65783 0.467289 4.91332 0.283136C5.16882 0.0989837 5.4758 -7.57959e-05 5.79075 4.35142e-08H9.21ZM11.9977 3.75H3.00225L3.64875 12.8032C3.66221 12.9924 3.74683 13.1694 3.88557 13.2987C4.02431 13.428 4.20687 13.4999 4.3965 13.5H10.6035C10.7931 13.4999 10.9757 13.428 11.1144 13.2987C11.2532 13.1694 11.3378 12.9924 11.3512 12.8032L11.9977 3.75ZM6 6C6.1837 6.00002 6.361 6.06747 6.49828 6.18954C6.63556 6.31161 6.72326 6.47981 6.74475 6.66225L6.75 6.75V10.5C6.74979 10.6912 6.67659 10.875 6.54536 11.014C6.41414 11.153 6.23479 11.2367 6.04395 11.2479C5.85312 11.2591 5.66522 11.197 5.51863 11.0743C5.37204 10.9516 5.27783 10.7776 5.25525 10.5878L5.25 10.5V6.75C5.25 6.55109 5.32902 6.36032 5.46967 6.21967C5.61032 6.07902 5.80109 6 6 6ZM9 6C9.19891 6 9.38968 6.07902 9.53033 6.21967C9.67098 6.36032 9.75 6.55109 9.75 6.75V10.5C9.75 10.6989 9.67098 10.8897 9.53033 11.0303C9.38968 11.171 9.19891 11.25 9 11.25C8.80109 11.25 8.61032 11.171 8.46967 11.0303C8.32902 10.8897 8.25 10.6989 8.25 10.5V6.75C8.25 6.55109 8.32902 6.36032 8.46967 6.21967C8.61032 6.07902 8.80109 6 9 6ZM9.21 1.5H5.79L5.54025 2.25H9.45975L9.21 1.5Z" fill="white"/>
</svg>
