<svg width="37" height="32" viewBox="0 0 37 32" fill="none" xmlns="http://www.w3.org/2000/svg">
<path d="M10.5092 8.34754C9.84415 8.51204 9.21104 8.89681 8.6664 9.48443L1.52612 17.1881C0.491294 18.3046 0.491294 20.5376 1.52612 21.6541L8.6664 29.3578C9.41147 30.1616 10.3221 30.5859 11.2535 30.5859H24.9131C25.8445 30.5859 26.7551 30.1616 27.5002 29.3578L34.6405 21.6541C35.6753 20.5376 35.6753 18.3046 34.6405 17.1881L27.5002 9.48443C26.9098 8.84749 26.2155 8.44888 25.4894 8.31079" stroke="#00B26B" stroke-width="1.5"/>
<path d="M18.083 21.3633C19.3238 21.3633 20.4375 22.4813 20.4375 24.0137C20.4373 25.5458 19.3237 26.663 18.083 26.6631C16.8423 26.6631 15.7287 25.5459 15.7285 24.0137C15.7285 22.4812 16.8422 21.3633 18.083 21.3633ZM7.73535 16.8311C8.9761 16.8312 10.0898 17.9482 10.0898 19.4805C10.0898 21.0128 8.97612 22.1298 7.73535 22.1299C6.49451 22.1299 5.38086 21.0129 5.38086 19.4805C5.38091 17.9481 6.49453 16.8311 7.73535 16.8311ZM28.4307 16.8311C29.6715 16.8311 30.7851 17.9481 30.7852 19.4805C30.7852 21.0129 29.6715 22.1299 28.4307 22.1299C27.1898 22.1299 26.0762 21.0129 26.0762 19.4805C26.0762 17.9481 27.1898 16.8311 28.4307 16.8311Z" stroke="#00B26B" stroke-width="1.5"/>
<path d="M21.513 6.20218C21.6357 6.38823 21.7135 6.60274 21.74 6.82732C21.7664 7.0519 21.7405 7.27985 21.6646 7.49164L19.6647 13.0904C19.5405 13.4384 19.2897 13.7203 18.9675 13.8742C18.6452 14.0281 18.278 14.0413 17.9464 13.9109C17.6149 13.7805 17.3464 13.5172 17.1998 13.1789C17.0532 12.8407 17.0406 12.4551 17.1648 12.1071L18.4981 8.39968H15.0832C14.8678 8.39967 14.6556 8.34486 14.4647 8.23992C14.2738 8.13499 14.1101 7.98306 13.9874 7.79716C13.8647 7.61125 13.7867 7.39689 13.7602 7.17244C13.7336 6.94799 13.7593 6.72013 13.835 6.50836L15.8349 0.90964C15.9591 0.561623 16.2099 0.279657 16.5321 0.125771C16.8544 -0.028114 17.2216 -0.0413135 17.5531 0.0890769C17.8846 0.219467 18.1532 0.482767 18.2998 0.821052C18.4464 1.15934 18.459 1.5449 18.3348 1.89291L17.0015 5.60032H20.4163C20.6319 5.60013 20.8442 5.65478 21.0352 5.7596C21.2262 5.86442 21.3901 6.01629 21.513 6.20218Z" fill="#00B26B"/>
</svg>
