<svg width="19" height="21" viewBox="0 0 19 21" fill="none" xmlns="http://www.w3.org/2000/svg">
<path d="M5.44238 0.25C6.19929 0.25 6.83466 0.584708 7.36914 1.14258C7.89863 1.69533 8.33736 2.47401 8.71777 3.38867C9.47808 5.21674 10.037 7.66798 10.6016 10.1553C10.9888 11.8588 11.4425 13.8627 11.9658 15.4404C12.228 16.2307 12.503 16.8993 12.7881 17.3652C12.9306 17.5982 13.0692 17.7695 13.2002 17.8799C13.3297 17.989 13.4385 18.0273 13.5303 18.0273C14.1799 18.0273 14.6976 17.6292 15.1172 16.9434C15.5375 16.2563 15.8301 15.3232 16.0312 14.3662C16.2315 13.4136 16.3372 12.4558 16.3926 11.7295C16.4202 11.3667 16.4352 11.062 16.4434 10.8467C16.4474 10.7393 16.4499 10.6541 16.4512 10.5947C16.4518 10.565 16.4519 10.5416 16.4521 10.5254C16.4523 10.5175 16.4531 10.5113 16.4531 10.5068V10.25H18.75V10.5C18.75 10.7109 18.7364 13.2361 18.1006 15.7158C17.7829 16.9545 17.3049 18.2036 16.5791 19.1475C15.8476 20.0986 14.8547 20.75 13.5303 20.75C12.7736 20.7499 12.1394 20.4162 11.6064 19.8594C11.0786 19.3078 10.6428 18.5306 10.2646 17.6182C9.50886 15.7942 8.95315 13.3478 8.38867 10.8662C7.979 9.06274 7.52104 7.05393 6.99902 5.49609C6.73755 4.71579 6.46522 4.06416 6.18262 3.6123C5.88796 3.14123 5.63613 2.97266 5.44238 2.97266C4.80577 2.97274 4.29563 3.36893 3.87988 4.05566C3.4639 4.74292 3.17328 5.6758 2.97266 6.63281C2.77287 7.58599 2.66576 8.54491 2.60938 9.27148C2.58123 9.63416 2.56616 9.93805 2.55762 10.1533C2.55334 10.261 2.55027 10.3468 2.54883 10.4062C2.54812 10.4356 2.54812 10.4585 2.54785 10.4746C2.54772 10.4827 2.54791 10.4897 2.54785 10.4941C2.54779 10.4989 2.54688 10.5005 2.54688 10.5V10.75H0.25V10.5C0.25 10.2892 0.263055 7.76385 0.895508 5.28418C1.21146 4.04548 1.68719 2.79645 2.40918 1.85254C3.13664 0.901525 4.12424 0.250067 5.44238 0.25Z" fill="#00B26B" stroke="#00B26B" stroke-width="0.5"/>
</svg>
